# xmcd
#
# Track frame offsets: 
#        150
#        22563
#        70511
#        116635
#        173280
#
# Disc length: 2949 seconds
#
# Revision: 2
# Processed by: cddbd v1.5.2PL0 Copyright (c) Steve Scherf et al.
# Submitted via: ExactAudioCopy v1.0b3
#
DISCID=280b8305
DTITLE=Kauan - Aava Tuulen Maa
DYEAR=2009
DGENRE=Ambient/Post Rock
TTITLE0=Ommeltu Polku
TTITLE1=Valveuni
TTITLE2=Föhn
TTITLE3=Sokea Sisar
TTITLE4=Neulana Hetkessä
EXTD=
EXTT0=
EXTT1=
EXTT2=
EXTT3=
EXTT4=
PLAYORDER=
